<?xml version="1.0" encoding="utf-8"?>
<!-- Generator: Adobe Illustrator 26.3.1, SVG Export Plug-In . SVG Version: 6.00 Build 0)  -->
<svg version="1.1" id="Ebene_1" xmlns="http://www.w3.org/2000/svg" xmlns:xlink="http://www.w3.org/1999/xlink" x="0px" y="0px"
	 viewBox="0 0 224.2 64.9" style="enable-background:new 0 0 224.2 64.9;" xml:space="preserve">
<style type="text/css">
	.st0{fill:#6F6D6A;}
</style>
<g>
	<g>
		<path d="M142.5,41h13.8c0.8,0,1.1,0.5,1.1,1.1s-0.3,1-1.1,1H141c-0.6,0-1.1-0.4-1.1-1V16.4c0-0.7,0.6-1,1.3-1c0.6,0,1.2,0.3,1.2,1
			V41z"/>
		<path d="M161.2,23.9c0-0.6,0.3-1,0.8-1.1c0.8-0.2,3.7-0.5,7.4-0.5c6.8,0,8.7,1.4,8.7,6v9.3c0,5.1-2.1,5.9-9.2,5.9
			c-6.9,0-8.6-1.2-8.6-5.8s1.4-6.2,8.2-6.2h7.3V28c0-2.9-1.7-3.7-6.5-3.7c-4.2,0-6,0.6-7.1,0.6C161.6,24.9,161.2,24.5,161.2,23.9z
			 M175.7,33.4h-7.3c-4.8,0-5.8,1.1-5.8,4c0,3.1,1.3,4.1,6.3,4.1c5.5,0,6.8-0.6,6.8-3.8V33.4z"/>
		<path d="M183,15.9c0-0.7,0.5-1,1.2-1c0.6,0,1.2,0.3,1.2,1v8.3h0.1c1.2-1.2,3-1.9,7.2-1.9c7.3,0,9.5,2.1,9.5,10.8
			c0,8.4-2.4,10.4-9.6,10.4c-7.3,0-9.6-1.7-9.6-10.4V15.9z M192.7,41.5c5.5,0,7.3-1.3,7.3-8.5c0-7.5-1.9-8.7-7.3-8.7
			c-5.5,0-7.2,1.1-7.2,8.7C185.4,40.5,187.2,41.5,192.7,41.5z"/>
	</g>
	<g>
		<path class="st0" d="M103.7,42.1h5.5c2.8,0,4.1,0.5,4.1,2.3c0,1.7-1.5,2.1-4.8,2.1c-3.1,0-4.8-0.4-4.8-1.8V42.1z M108.3,31.3
			c-4.2,0-4.6-0.2-4.6-2.4v-0.2c0-1.9,1.2-2.3,4.6-2.3c1.5,0,3.3,0.1,4.6,0.3v1.8C113,30.8,112.5,31.3,108.3,31.3 M113,22.2
			c-1.2-0.2-2.9-0.4-4.6-0.4c-7,0-9.6,0.6-9.6,6.8v16.1c0,5.5,3,6.5,9.7,6.5c7.1,0,9.8-1.3,9.8-7c0-4.6-1.8-6.6-7.9-6.6h-6.6v-1.8
			c1.2,0.2,2.8,0.2,4.6,0.2c7,0,9.6-1.1,9.6-6.9v-8.5c0-1.5-1.1-2.1-2.4-2.1c-1.4,0-2.5,0.6-2.5,2.1V22.2z M90,37.4
			c0,1.2-1,1.5-3.9,1.5c-3.1,0-3.9-0.5-3.9-2.1c0-1.8,0.6-2.1,3.2-2.1H90V37.4z M80.5,27.2c2.1,0,2.7-0.5,6.2-0.5
			c2.6,0,3.4,0.4,3.4,1.8v1.7h-5.6c-6.3,0-7.4,2.1-7.4,6.8c0,5.8,2,6.7,9.2,6.7c6.7,0,9.1-0.9,9.1-6.6V29c0-5.2-1.8-7.2-8.4-7.2
			c-7.7,0-8.5,0.8-8.5,3C78.4,26.2,79,27.2,80.5,27.2 M64.9,26.8c3.1,0,3.6,0.6,3.6,4.5v9.8c0,1.6,1.2,2.2,2.6,2.2
			c1.5,0,2.7-0.6,2.7-2.2V30.8c0-8-2.1-9.1-8.8-9.1c-2.7,0-4.9,0.6-6.3,1.3c-1.5-0.8-3.4-1.3-6.2-1.3c-6.7,0-8.8,1.1-8.8,9.1v10.3
			c0,1.6,1.2,2.2,2.7,2.2c1.5,0,2.6-0.6,2.6-2.2v-9.8c0-3.9,0.5-4.5,3.6-4.5c2.9,0,3.6,0.6,3.6,3.5v10.8c0,1.6,1.2,2.2,2.7,2.2
			c1.5,0,2.7-0.6,2.7-2.2V30.8C61.3,27.4,61.9,26.8,64.9,26.8 M35,37.4c0,1.2-1,1.5-3.9,1.5c-3.1,0-3.9-0.5-3.9-2.1
			c0-1.8,0.6-2.1,3.2-2.1H35V37.4z M25.4,27.2c2.1,0,2.7-0.5,6.2-0.5c2.6,0,3.4,0.4,3.4,1.8v1.7h-5.6c-6.3,0-7.4,2.1-7.4,6.8
			c0,5.8,2,6.7,9.2,6.7c6.7,0,9.1-0.9,9.1-6.6V29c0-5.2-1.8-7.2-8.4-7.2c-7.7,0-8.5,0.8-8.5,3C23.3,26.2,23.9,27.2,25.4,27.2"/>
	</g>
</g>
</svg>
