<svg xmlns="http://www.w3.org/2000/svg" xmlns:xlink="http://www.w3.org/1999/xlink" version="1.1" width="373.8806pt" height="187.90503pt" viewBox="0 0 373.8806 187.90503">
<g>
<path d="M164.211 91.895H162.316C161.984 90.383 161.262 89.219 160.148 88.355 159.008 87.492 157.703 87.086 156.227 87.086 153.758 87.086 151.863 87.996 150.535 89.809 149.336 91.414 148.762 93.414 148.762 95.801 148.762 98.199 149.336 100.199 150.535 101.781 151.863 103.617 153.758 104.527 156.227 104.527 158.016 104.527 159.477 103.918 160.652 102.672 161.766 101.508 162.402 99.996 162.594 98.176H164.488C164.234 100.609 163.375 102.563 161.875 104 160.426 105.426 158.543 106.148 156.227 106.148 153.254 106.148 150.895 105.094 149.203 103.008 147.645 101.09 146.867 98.703 146.867 95.801 146.867 92.914 147.645 90.527 149.203 88.609 150.895 86.523 153.254 85.469 156.227 85.469 158.207 85.469 159.957 86.031 161.43 87.109 163.039 88.309 163.961 89.914 164.211 91.895ZM164.211 91.895" fill="#211e1e"/>
<path d="M167.949 105.727V85.887H181.648V87.492H169.844V94.664H180.895V96.281H169.844V104.121H181.781V105.727ZM167.949 105.727" fill="#211e1e"/>
<path d="M184.977 105.727V85.887H187.086L198.699 102.672V85.887H200.582V105.727H198.473L186.855 88.945V105.727ZM184.977 105.727" fill="#211e1e"/>
<path d="M202.988 87.492V85.887H218.715V87.492H211.801V105.727H209.918V87.492ZM202.988 87.492" fill="#211e1e"/>
<path d="M221.156 105.727V85.887H234.859V87.492H223.051V94.664H234.102V96.281H223.051V104.121H234.992V105.727ZM221.156 105.727" fill="#211e1e"/>
<path d="M238.207 105.727V85.887H247.293C249.043 85.887 250.461 86.309 251.551 87.133 252.738 88.059 253.324 89.363 253.324 91.055 253.324 92.359 252.988 93.441 252.352 94.34 251.656 95.273 250.711 95.859 249.465 96.113V96.172C251.598 96.449 252.773 97.945 252.93 100.645 253.012 102.227 253.074 103.113 253.098 103.305 253.242 104.504 253.492 105.309 253.852 105.727H251.766C251.516 105.309 251.32 104.277 251.238 102.645 251.129 100.777 250.902 99.469 250.543 98.75 249.957 97.527 248.852 96.918 247.27 96.918H240.102V105.727ZM240.102 87.492V95.309H247.152C248.348 95.309 249.379 94.949 250.207 94.254 251.012 93.559 251.43 92.613 251.43 91.449 251.43 90.191 251.07 89.219 250.328 88.547 249.598 87.828 248.543 87.492 247.152 87.492ZM240.102 87.492" fill="#211e1e"/>
<path d="M265.039 105.727V85.887H277.625V87.492H266.934V94.664H276.426V96.281H266.934V105.727ZM265.039 105.727" fill="#211e1e"/>
<path d="M279.48 95.801C279.48 92.914 280.258 90.527 281.816 88.609 283.508 86.523 285.867 85.469 288.84 85.469 291.813 85.469 294.152 86.523 295.844 88.609 297.398 90.527 298.18 92.914 298.18 95.801 298.18 98.703 297.398 101.09 295.844 103.008 294.152 105.094 291.813 106.148 288.84 106.148 285.867 106.148 283.508 105.094 281.816 103.008 280.258 101.09 279.48 98.703 279.48 95.801ZM281.359 95.801C281.359 98.199 281.949 100.199 283.148 101.781 284.477 103.617 286.371 104.527 288.84 104.527 291.285 104.527 293.18 103.617 294.535 101.781 295.711 100.199 296.285 98.199 296.285 95.801 296.285 93.414 295.711 91.414 294.535 89.809 293.18 87.996 291.285 87.086 288.84 87.086 286.371 87.086 284.477 87.996 283.148 89.809 281.949 91.414 281.359 93.414 281.359 95.801ZM281.359 95.801" fill="#211e1e"/>
<path d="M301.695 105.727V85.887H310.785C312.535 85.887 313.949 86.309 315.039 87.133 316.227 88.059 316.813 89.363 316.813 91.055 316.813 92.359 316.477 93.441 315.844 94.34 315.148 95.273 314.199 95.859 312.953 96.113V96.172C315.086 96.449 316.262 97.945 316.418 100.645 316.5 102.227 316.563 103.113 316.586 103.305 316.73 104.504 316.98 105.309 317.34 105.727H315.254C315.004 105.309 314.813 104.277 314.727 102.645 314.621 100.777 314.391 99.469 314.031 98.75 313.445 97.527 312.34 96.918 310.758 96.918H303.59V105.727ZM303.59 87.492V95.309H310.641C311.84 95.309 312.871 94.949 313.695 94.254 314.5 93.559 314.918 92.613 314.918 91.449 314.918 90.191 314.559 89.219 313.816 88.547 313.086 87.828 312.031 87.492 310.641 87.492ZM303.59 87.492" fill="#211e1e"/>
<path d="M147.836 131.617V111.715H154.285C156.707 111.715 158.313 111.836 159.031 112.027 160.207 112.328 161.156 112.977 161.922 113.969 162.676 114.977 163.063 116.273 163.063 117.832 163.063 119.055 162.844 120.082 162.402 120.922 161.957 121.75 161.395 122.422 160.699 122.891 160.039 123.367 159.344 123.668 158.648 123.836 157.68 124.004 156.289 124.113 154.477 124.113H151.84V131.617ZM151.84 115.086V120.719H154.035C155.617 120.719 156.707 120.637 157.234 120.418 157.762 120.227 158.184 119.891 158.48 119.449 158.793 119.004 158.926 118.5 158.926 117.891 158.926 117.172 158.711 116.582 158.289 116.117 157.871 115.637 157.32 115.336 156.672 115.215 156.203 115.133 155.234 115.086 153.781 115.086ZM151.84 115.086" fill="#0c87d1"/>
<path d="M166.918 131.617V111.777H176.004C177.758 111.777 179.172 112.195 180.262 113.023 181.449 113.945 182.035 115.254 182.035 116.941 182.035 118.25 181.699 119.328 181.066 120.227 180.371 121.164 179.422 121.75 178.176 122V122.063C180.309 122.336 181.484 123.836 181.641 126.535 181.723 128.117 181.785 129.004 181.809 129.195 181.953 130.395 182.203 131.195 182.563 131.617H180.477C180.227 131.195 180.035 130.164 179.949 128.535 179.844 126.664 179.613 125.359 179.254 124.641 178.668 123.418 177.563 122.805 175.98 122.805H168.813V131.617ZM168.813 113.383V121.199H175.863C177.063 121.199 178.09 120.84 178.918 120.145 179.723 119.449 180.141 118.5 180.141 117.34 180.141 116.078 179.781 115.109 179.039 114.438 178.309 113.719 177.254 113.383 175.863 113.383ZM168.813 113.383" fill="#211e1e"/>
<path d="M184.973 121.691C184.973 118.801 185.75 116.414 187.309 114.496 189 112.41 191.359 111.355 194.332 111.355 197.305 111.355 199.645 112.41 201.336 114.496 202.895 116.414 203.672 118.801 203.672 121.691 203.672 124.59 202.895 126.977 201.336 128.895 199.645 130.98 197.305 132.035 194.332 132.035 191.359 132.035 189 130.98 187.309 128.895 185.75 126.977 184.973 124.59 184.973 121.691ZM186.852 121.691C186.852 124.086 187.441 126.09 188.641 127.672 189.969 129.508 191.863 130.418 194.332 130.418 196.777 130.418 198.672 129.508 200.027 127.672 201.203 126.09 201.777 124.086 201.777 121.691 201.777 119.305 201.203 117.301 200.027 115.695 198.672 113.887 196.777 112.977 194.332 112.977 191.863 112.977 189.969 113.887 188.641 115.695 187.441 117.301 186.852 119.305 186.852 121.691ZM186.852 121.691" fill="#211e1e"/>
<path d="M215.184 125.273V111.777H217.078V126.09C217.078 128.141 216.66 129.637 215.797 130.563 214.91 131.531 213.41 132.035 211.301 132.035 207.574 132.035 205.738 129.781 205.773 125.25H207.656C207.715 126.785 207.859 127.863 208.102 128.477 208.664 129.781 209.801 130.418 211.469 130.418 212.906 130.418 213.891 130.035 214.441 129.23 214.945 128.477 215.184 127.145 215.184 125.273ZM215.184 125.273" fill="#211e1e"/>
<path d="M221.656 131.617V111.777H235.359V113.383H223.551V120.551H234.602V122.168H223.551V130.008H235.488V131.617ZM221.656 131.617" fill="#211e1e"/>
<path d="M255.105 117.781H253.211C252.875 116.273 252.156 115.109 251.043 114.246 249.902 113.383 248.598 112.977 247.121 112.977 244.652 112.977 242.758 113.887 241.43 115.695 240.23 117.301 239.652 119.305 239.652 121.691 239.652 124.086 240.23 126.09 241.43 127.672 242.758 129.508 244.652 130.418 247.121 130.418 248.91 130.418 250.371 129.805 251.547 128.559 252.66 127.395 253.297 125.887 253.488 124.063H255.383C255.129 126.496 254.266 128.453 252.77 129.891 251.316 131.316 249.438 132.035 247.121 132.035 244.148 132.035 241.789 130.98 240.098 128.895 238.539 126.977 237.758 124.59 237.758 121.691 237.758 118.801 238.539 116.414 240.098 114.496 241.789 112.41 244.148 111.355 247.121 111.355 249.102 111.355 250.852 111.922 252.324 113 253.93 114.199 254.855 115.805 255.105 117.781ZM255.105 117.781" fill="#211e1e"/>
<path d="M256.695 113.383V111.777H272.422V113.383H265.508V131.617H263.625V113.383ZM256.695 113.383" fill="#211e1e"/>
<path d="M272.582 123.164H279.535V124.781H272.582Z" fill="#211e1e"/>
<path d="M302.5 131.617 310.492 111.777H312.617L320.395 131.617H318.359L315.949 125.441H306.91L304.523 131.617ZM311.465 113.672 307.496 123.836H315.301ZM311.465 113.672" fill="#211e1e"/>
<path d="M321.766 125.082H323.656C323.574 128.645 325.742 130.418 330.133 130.418 331.379 130.418 332.527 130.117 333.547 129.48 334.77 128.727 335.383 127.695 335.383 126.391 335.383 124.676 334.027 123.477 331.305 122.805L326.883 121.727C323.91 121.008 322.41 119.414 322.41 116.941 322.41 115.613 322.855 114.438 323.742 113.418 324.941 112.051 326.773 111.355 329.246 111.355 331.332 111.355 333.02 111.883 334.387 112.914 335.863 114.055 336.605 115.59 336.582 117.531H334.688C334.641 116.078 334.074 114.941 332.996 114.113 331.988 113.359 330.742 112.977 329.27 112.977 327.828 112.977 326.691 113.25 325.828 113.828 324.797 114.523 324.293 115.551 324.293 116.918 324.293 118.441 325.301 119.449 327.301 119.941L332.133 121.141C335.551 122 337.277 123.727 337.277 126.367 337.277 127.648 336.879 128.75 336.113 129.699 334.855 131.258 332.723 132.035 329.688 132.035 327.219 132.035 325.277 131.473 323.887 130.371 322.352 129.172 321.656 127.395 321.766 125.082ZM321.766 125.082" fill="#211e1e"/>
<path d="M340.852 131.617V111.777H354.551V113.383H342.742V120.551H353.797V122.168H342.742V130.008H354.684V131.617ZM340.852 131.617" fill="#211e1e"/>
<path d="M359.797 113.383V130.008H363.824C366.676 130.008 368.762 129.363 370.07 128.055 371.352 126.75 371.988 124.641 371.988 121.691 371.988 118.754 371.352 116.645 370.07 115.336 368.762 114.031 366.676 113.383 363.824 113.383ZM357.902 131.617V111.777H364.758C367.73 111.777 370.02 112.602 371.566 114.281 373.102 115.973 373.879 118.441 373.879 121.691 373.879 124.949 373.102 127.422 371.566 129.109 370.02 130.777 367.73 131.617 364.758 131.617ZM357.902 131.617" fill="#211e1e"/>
<path d="M165.359 157.523V137.684H179.059V139.289H167.25V146.457H178.305V148.078H167.25V155.918H179.191V157.523ZM165.359 157.523" fill="#211e1e"/>
<path d="M180.77 157.523 188.766 137.684H190.887L198.668 157.523H196.629L194.219 151.348H185.184L182.797 157.523ZM189.738 139.578 185.77 149.742H193.574ZM189.738 139.578" fill="#211e1e"/>
<path d="M201.043 157.523V137.684H210.129C211.879 137.684 213.293 138.102 214.387 138.93 215.57 139.852 216.16 141.16 216.16 142.852 216.16 144.156 215.824 145.234 215.188 146.137 214.492 147.07 213.547 147.656 212.301 147.91V147.969C214.434 148.246 215.609 149.742 215.766 152.441 215.848 154.023 215.906 154.91 215.934 155.102 216.074 156.301 216.328 157.105 216.688 157.523H214.602C214.348 157.105 214.156 156.074 214.074 154.441 213.965 152.57 213.738 151.266 213.379 150.547 212.789 149.324 211.688 148.711 210.105 148.711H202.938V157.523ZM202.938 139.289V147.105H209.984C211.184 147.105 212.215 146.746 213.043 146.051 213.848 145.355 214.266 144.41 214.266 143.246 214.266 141.988 213.906 141.016 213.164 140.344 212.43 139.625 211.375 139.289 209.984 139.289ZM202.938 139.289" fill="#211e1e"/>
<path d="M220.125 157.523V137.684H222.234L233.852 154.465V137.684H235.734V157.523H233.625L222.008 140.742V157.523ZM220.125 157.523" fill="#211e1e"/>
<path d="M240.418 137.684H242.313V157.524H240.418Z" fill="#211e1e"/>
<path d="M247.004 157.523V137.684H249.113L260.73 154.465V137.684H262.613V157.523H260.504L248.887 140.742V157.523ZM247.004 157.523" fill="#211e1e"/>
<path d="M284.113 147.441V157.523H282.746L282.496 153.914H282.449C281.188 156.613 278.887 157.941 275.578 157.941 272.605 157.941 270.281 156.887 268.555 154.801 266.996 152.883 266.215 150.5 266.215 147.598 266.215 144.707 266.996 142.324 268.555 140.406 270.281 138.32 272.605 137.266 275.578 137.266 277.723 137.266 279.559 137.828 281.031 138.93 282.555 140.105 283.504 141.734 283.863 143.855H281.969C281.836 142.598 281.223 141.496 280.109 140.512 278.887 139.434 277.363 138.883 275.578 138.883 273.109 138.883 271.215 139.793 269.883 141.602 268.723 143.211 268.109 145.211 268.109 147.598 268.109 149.996 268.723 151.996 269.883 153.578 271.215 155.414 273.109 156.324 275.578 156.324 277.723 156.324 279.438 155.629 280.695 154.273 281.883 152.945 282.496 151.18 282.449 149.047H275.699V147.441ZM284.113 147.441" fill="#211e1e"/>
<path d="M284.91 111.715H292.855C294.441 111.715 295.613 111.777 296.395 111.922 297.16 112.051 297.855 112.328 298.469 112.746 299.078 113.168 299.582 113.719 300 114.414 300.387 115.109 300.613 115.887 300.613 116.727 300.613 117.664 300.363 118.527 299.859 119.305 299.332 120.086 298.672 120.672 297.809 121.055 299.031 121.391 299.941 122.004 300.613 122.84 301.25 123.691 301.586 124.699 301.586 125.84 301.586 126.75 301.355 127.648 300.949 128.5 300.527 129.34 299.941 130.035 299.223 130.539 298.504 131.066 297.617 131.363 296.523 131.473 295.867 131.555 294.246 131.594 291.695 131.617H284.91ZM288.938 115.023V119.641H291.551C293.133 119.641 294.105 119.617 294.5 119.555 295.172 119.496 295.723 119.246 296.105 118.859 296.5 118.477 296.691 117.949 296.691 117.305 296.691 116.691 296.523 116.199 296.191 115.805 295.828 115.422 295.328 115.191 294.668 115.109 294.273 115.051 293.133 115.023 291.25 115.023ZM288.938 122.949V128.258H292.664C294.105 128.258 295.027 128.223 295.41 128.141 295.996 128.031 296.5 127.781 296.859 127.336 297.246 126.918 297.449 126.367 297.449 125.672 297.449 125.059 297.281 124.555 297.004 124.137 296.691 123.727 296.273 123.418 295.746 123.227 295.195 123.031 293.996 122.949 292.16 122.949ZM288.938 122.949" fill="#d11e26"/>
<path d="M147.941 157.523V137.793H151.945V154.168H161.922V157.523ZM147.941 157.523" fill="#00a64f"/>
<path d="M81.566 0H122.426C133.258 0 141.887 3.02 148.305 9.047 154.73 15.078 157.938 23.453 157.938 34.176 157.938 44.898 154.73 53.273 148.305 59.305 141.887 65.332 133.258 68.348 122.426 68.348H81.566V58.633H119.914C128.066 58.633 134.543 56.539 139.344 52.352 144.148 48.164 146.547 42.105 146.547 34.176 146.547 26.246 144.094 20.102 139.18 15.75 134.488 11.727 128.066 9.719 119.914 9.719H81.566ZM81.566 0" fill="#0c87d1" fill-rule="evenodd"/>
<path d="M81.461 178.188H147.676V187.907H81.461Z" fill="#00a64f" fill-rule="evenodd"/>
<path d="M81.59 168.465H42.738C21.813 168.465 11.352 160.258 11.352 143.852 11.352 128.449 21.813 120.746 42.738 120.746H81.59V111.035H42.738C34.055 111.035 27.324 109.082 22.535 105.176 18.082 101.496 15.859 96.691 15.859 90.777 15.859 75.82 24.816 68.344 42.738 68.344H81.59V58.633H42.738C31.496 58.633 22.59 60.754 16.023 64.996 8.348 69.902 4.508 77.551 4.508 87.93 4.508 94.293 6.43 100.016 10.266 105.094 14.105 110.172 19.086 113.379 25.207 114.719V115.055C17.527 116.059 11.406 119.211 6.844 124.516 2.281 129.816 0 136.371 0 144.188 0 166.844 14.246 178.176 42.738 178.176H81.59ZM81.59 168.465" fill="#d11e26" fill-rule="evenodd"/>
</g>
</svg>
